<svg width="117" height="117" viewBox="0 0 117 117" fill="none" xmlns="http://www.w3.org/2000/svg">
<path fill-rule="evenodd" clip-rule="evenodd" d="M58.3846 116.769C90.6295 116.769 116.769 90.6295 116.769 58.3846C116.769 26.1397 90.6295 0 58.3846 0C26.1397 0 0 26.1397 0 58.3846C0 90.6295 26.1397 116.769 58.3846 116.769ZM58.3846 105.092C84.1806 105.092 105.092 84.1806 105.092 58.3846C105.092 32.5887 84.1806 11.6769 58.3846 11.6769C32.5887 11.6769 11.6769 32.5887 11.6769 58.3846C11.6769 84.1806 32.5887 105.092 58.3846 105.092Z" fill="#CB0000"/>
<path fill-rule="evenodd" clip-rule="evenodd" d="M58.0661 49.8041L40.1777 31.9158L31.9209 40.1726L49.8093 58.061L31.918 75.9523L40.1748 84.2091L58.0661 66.3178L75.9573 84.209L84.2142 75.9522L66.3229 58.061L84.2112 40.1727L75.9544 31.9158L58.0661 49.8041Z" fill="#CB0000"/>
</svg>
