<svg width="118" height="117" viewBox="0 0 118 117" fill="none" xmlns="http://www.w3.org/2000/svg">
<path fill-rule="evenodd" clip-rule="evenodd" d="M58.9232 117C91.1681 117 117.308 90.8605 117.308 58.6156C117.308 26.3706 91.1681 0.230957 58.9232 0.230957C26.6783 0.230957 0.538574 26.3706 0.538574 58.6156C0.538574 90.8605 26.6783 117 58.9232 117ZM58.9231 105.323C84.719 105.323 105.631 84.4116 105.631 58.6156C105.631 32.8197 84.719 11.9079 58.9231 11.9079C33.1271 11.9079 12.2154 32.8197 12.2154 58.6156C12.2154 84.4116 33.1271 105.323 58.9231 105.323Z" fill="#00A907"/>
<path fill-rule="evenodd" clip-rule="evenodd" d="M50.7574 87.5018L50.7537 87.5055L21.5576 58.3094L29.8144 50.0526L52.6751 72.9133L87.9916 37.5968L96.2484 45.8536L52.6788 89.4232L50.7574 87.5018Z" fill="#00A907"/>
</svg>
